# xmcd CD database file
#
# Track frame offsets:
#	150
#	29628
#	48827
#	67655
#	83110
#	109738
#	120722
#
# Disc length: 1800 seconds
#
# Revision: 0
# Processed by: cddbd v1.5PL3 Copyright (c) Steve Scherf et al.
# Submitted via: CDex 1.51
#
DISCID=52070607
DTITLE=Nobuyoshi Ino and Lester Bowie - Duet
DYEAR=1985
DGENRE=Jazz
TTITLE0=Kami-Fusen (Nobuyoshi Ino)
TTITLE1=Moon Over Bourbon Street (Sting)
TTITLE2=Fela-Ellen David (Nobuyoshi Ino, Lester Bowie) (Charlie Haden)
TTITLE3=Baku-No-Akubi (Nobuyoshi Ino)
TTITLE4=Wishful Thinking (Lester Bowie)
TTITLE5=Three-Legged Race (Nobuyoshi Ino)
TTITLE6=Goin´ Home (Dvorák, arr. Nobuyoshi Ino)
EXTD=YEAR: 1985
EXTT0=
EXTT1=
EXTT2=
EXTT3=
EXTT4=
EXTT5=
EXTT6=
PLAYORDER=
